<svg xmlns="http://www.w3.org/2000/svg" width="32" height="32" viewBox="0 0 32 32">
  <rect width="32" height="32" rx="8" fill="#004a8f"/>
  <g transform="translate(5,5)" fill="white">
    <!-- Phone handset -->
    <path d="M4.2 1.4C3.4.6 2.2.6 1.4 1.4L.6 2.2C-.6 3.4-.2 5.6 1.8 8.2c1.6 2 3.6 4 5.6 5.6 2.6 2 4.8 2.4 6 1.2l.8-.8c.8-.8.8-2 0-2.8l-2-2c-.8-.8-2-.8-2.8 0l-.4.4c-.6-.4-1.4-1-2.2-1.8-.8-.8-1.4-1.6-1.8-2.2l.4-.4c.8-.8.8-2 0-2.8l-2-2z" opacity="0.95"/>
    <!-- Calculator / tax symbol -->
    <rect x="12" y="3" width="10" height="13" rx="1.5" opacity="0.95"/>
    <rect x="13.5" y="4.5" width="7" height="3" rx="0.5" fill="#004a8f"/>
    <circle cx="15" cy="10" r="0.9" fill="#004a8f"/>
    <circle cx="17" cy="10" r="0.9" fill="#004a8f"/>
    <circle cx="19" cy="10" r="0.9" fill="#004a8f"/>
    <circle cx="15" cy="12.5" r="0.9" fill="#004a8f"/>
    <circle cx="17" cy="12.5" r="0.9" fill="#004a8f"/>
    <circle cx="19" cy="12.5" r="0.9" fill="#004a8f"/>
  </g>
</svg>
